<?xml version="1.0" encoding="UTF-8" standalone="no"?>
<svg
   xmlns:dc="http://purl.org/dc/elements/1.1/"
   xmlns:cc="http://creativecommons.org/ns#"
   xmlns:rdf="http://www.w3.org/1999/02/22-rdf-syntax-ns#"
   xmlns:svg="http://www.w3.org/2000/svg"
   xmlns="http://www.w3.org/2000/svg"
   xmlns:sodipodi="http://sodipodi.sourceforge.net/DTD/sodipodi-0.dtd"
   xmlns:inkscape="http://www.inkscape.org/namespaces/inkscape"
   inkscape:version="1.0 (4035a4fb49, 2020-05-01)"
   sodipodi:docname="efolio-icon.svg"
   id="svg8"
   version="1.1"
   viewBox="0 0 44.072743 26.259232"
   height="26.259232mm"
   width="44.072742mm">
  <defs
     id="defs2" />
  <sodipodi:namedview
     inkscape:window-maximized="1"
     inkscape:window-y="-8"
     inkscape:window-x="2552"
     inkscape:window-height="1377"
     inkscape:window-width="2560"
     showgrid="false"
     inkscape:document-rotation="0"
     inkscape:current-layer="layer1"
     inkscape:document-units="mm"
     inkscape:cy="29.042798"
     inkscape:cx="23.590592"
     inkscape:zoom="8"
     inkscape:pageshadow="2"
     inkscape:pageopacity="0.0"
     borderopacity="1.0"
     bordercolor="#666666"
     pagecolor="#ffffff"
     id="base" />
  <metadata
     id="metadata5">
    <rdf:RDF>
      <cc:Work
         rdf:about="">
        <dc:format>image/svg+xml</dc:format>
        <dc:type
           rdf:resource="http://purl.org/dc/dcmitype/StillImage" />
      </cc:Work>
    </rdf:RDF>
  </metadata>
  <g
     transform="translate(-82.58628,-72.830948)"
     id="layer1"
     inkscape:groupmode="layer"
     inkscape:label="Layer 1">
    <g
       transform="matrix(0.84564101,0,0,1,12.747934,0)"
       id="g40">
      <path
         d="M 0.07421875,0 C 0.06957967,0.00242464 0.07023398,0.0078125 0.0625,0.0078125 c -0.0093313,0 -0.01726264,-3.825e-5 -0.02539063,0 C 0.0350562,0.00964975 0.03321057,0.01157861 0.03125,0.01367188 0.02581688,0.01987643 0.02063647,0.02651876 0.015625,0.03320312 0.01036004,0.04623568 0.00503384,0.0589252 0,0.07226562 V 29.183594 c 0.00152487,0.0032 0.00501758,0.0017 0.00585938,0.0059 0.00371515,0.01857 0.00516457,0.03777 0.0078125,0.05664 0.02211565,0.01901 0.04691581,0.03446 0.07226562,0.04883 H 110.14258 c 0.003,-0.0032 0.005,-0.0067 0.008,-0.0098 0.001,-0.0015 0.004,-0.0024 0.006,-0.0039 v -0.002 c 0.002,-0.0029 0.004,-0.005 0.006,-0.0078 0.01,-0.01421 0.0202,-0.02849 0.0293,-0.04297 10e-4,-0.0021 0.003,2.15e-4 0.004,-0.002 V 0.0625 c -0.001,-0.0031118 -0.002,-0.006003 -0.004,-0.0097656 -4.5e-4,-0.0023872 -0.003,-0.005559 -0.002,-0.0078125 -0.003,-0.0025433 -0.004,-0.0068065 -0.006,-0.0097656 h -0.002 c -0.006,-0.0016531 -0.0114,-0.0058648 -0.0176,-0.0078125 -0.01,-0.003137 -0.0195,-0.0065104 -0.0293,-0.0097656 C 110.121,0.01366176 110.12368,0.0063085 110.12109,0 Z"
         transform="matrix(0.31287902,0,0,0.26458333,82.586281,72.830948)"
         style="fill:#ffff00;fill-rule:evenodd;stroke-width:0.919586"
         id="rect20" />
      <rect
         style="fill:#ff5555;fill-rule:evenodd;stroke-width:0.264583"
         id="rect28"
         width="34.477768"
         height="7.7508163"
         x="88.867111"
         y="91.339363" />
      <rect
         style="fill:#00ccff;fill-rule:evenodd;stroke-width:0.264583"
         id="rect32"
         width="34.477768"
         height="7.7508163"
         x="100.22607"
         y="82.185379" />
    </g>
  </g>
</svg>
