<?xml version="1.0" encoding="iso-8859-1"?>
<!-- Generator: Adobe Illustrator 19.0.0, SVG Export Plug-In . SVG Version: 6.00 Build 0)  -->
<svg version="1.1" id="Capa_1" xmlns="http://www.w3.org/2000/svg" xmlns:xlink="http://www.w3.org/1999/xlink" x="0px" y="0px"
	 viewBox="0 0 512 512" style="enable-background:new 0 0 512 512;" xml:space="preserve">
<path style="fill:#FFFFFF;" d="M438,502H74c-11.046,0-20-8.954-20-20V30c0-11.046,8.954-20,20-20h364c11.046,0,20,8.954,20,20v452
	C458,493.046,449.046,502,438,502z"/>
<path style="fill:#DFF3FF;" d="M458,99.833V30c0-11.046-8.954-20-20-20h-69.833L458,99.833z"/>
<g>
	<path style="fill:#A5DDFF;" d="M367,11.294v69.833c0,11.046,8.954,20,20,20h69.833L367,11.294z"/>
	<rect x="101.73" y="74" style="fill:#A5DDFF;" width="146.44" height="172"/>
</g>
<path style="fill:#FFCDAC;" d="M200.887,141.5v6.5c0,14.359-11.641,26-26,26l0,0l0,0c-14.359,0-26-11.641-26-26v-6.5
	c0-14.359,11.641-26,26-26l0,0C189.246,115.5,200.887,127.141,200.887,141.5z"/>
<path style="fill:#FE6663;" d="M195.753,174h-41.732c-28.95,0-52.419,23.469-52.419,52.419V246h146.57v-19.581
	C248.172,197.469,224.703,174,195.753,174z"/>
<path d="M438,0H74C57.458,0,44,13.458,44,30v452c0,16.542,13.458,30,30,30h364c16.542,0,30-13.458,30-30V30
	C468,13.458,454.542,0,438,0z M448,30v48.151L389.849,20H438C443.514,20,448,24.486,448,30z M377,35.436l55.691,55.691H387
	c-5.514,0-10-4.486-10-10V35.436z M438,492H74c-5.514,0-10-4.486-10-10V30c0-5.514,4.486-10,10-10h283v61.127
	c0,16.542,13.458,30,30,30h61V482C448,487.514,443.514,492,438,492z"/>
<path d="M407.699,188H296.282c-5.523,0-10,4.477-10,10s4.477,10,10,10h111.417c5.523,0,10-4.477,10-10S413.222,188,407.699,188z"/>
<path d="M296.28,160c2.63,0,5.21-1.07,7.07-2.93c1.86-1.86,2.93-4.44,2.93-7.07s-1.07-5.21-2.93-7.07s-4.44-2.93-7.07-2.93
	s-5.21,1.07-7.07,2.93c-1.86,1.86-2.93,4.44-2.93,7.07s1.07,5.21,2.93,7.07S293.65,160,296.28,160z"/>
<path d="M336.206,160h71.493c5.523,0,10-4.477,10-10s-4.477-10-10-10h-71.493c-5.523,0-10,4.477-10,10S330.683,160,336.206,160z"/>
<path d="M407.699,236H299.365c-5.523,0-10,4.477-10,10s4.477,10,10,10h108.333c5.523,0,10-4.477,10-10S413.222,236,407.699,236z"/>
<path d="M410.269,284H104.301c-5.523,0-10,4.477-10,10s4.477,10,10,10h305.968c5.523,0,10-4.477,10-10S415.792,284,410.269,284z"/>
<path d="M104.301,352h303.397c5.523,0,10-4.477,10-10s-4.477-10-10-10H104.301c-5.523,0-10,4.477-10,10S98.778,352,104.301,352z"/>
<path d="M104.301,400h305.968c5.523,0,10-4.477,10-10s-4.477-10-10-10H104.301c-5.523,0-10,4.477-10,10S98.778,400,104.301,400z"/>
<path d="M410.27,428c-2.63,0-5.21,1.07-7.07,2.93c-1.86,1.86-2.93,4.44-2.93,7.07s1.07,5.21,2.93,7.07
	c1.86,1.86,4.44,2.93,7.07,2.93s5.21-1.07,7.07-2.93s2.93-4.44,2.93-7.07s-1.07-5.21-2.93-7.07C415.48,429.07,412.9,428,410.27,428z
	"/>
<path d="M370.006,428H104.301c-5.523,0-10,4.477-10,10s4.477,10,10,10h265.705c5.523,0,10-4.477,10-10S375.529,428,370.006,428z"/>
<path d="M101.602,256h146.57c5.523,0,10-4.477,10-10V74c0-5.523-4.477-10-10-10H101.731c-5.523,0-10,4.477-10,10l-0.129,172
	C91.602,251.523,96.079,256,101.602,256z M238.172,236h-126.57l0.129-12.731C113.35,201.346,131.692,184,154.021,184h41.732
	c23.39,0,42.419,19.029,42.419,42.419V236z M158.887,148v-6.5c0-8.822,7.178-16,16-16s16,7.178,16,16v6.5c0,8.822-7.178,16-16,16
	S158.887,156.822,158.887,148z M238.172,84v96.685c-8.618-7.999-19.489-13.589-31.545-15.717c2.715-5.059,4.26-10.836,4.26-16.968
	v-6.5c0-19.851-16.149-36-36-36s-36,16.149-36,36v6.5c0,6.132,1.545,11.909,4.26,16.968c-11.995,2.117-22.819,7.659-31.416,15.593
	V84H238.172z"/>
<g>
</g>
<g>
</g>
<g>
</g>
<g>
</g>
<g>
</g>
<g>
</g>
<g>
</g>
<g>
</g>
<g>
</g>
<g>
</g>
<g>
</g>
<g>
</g>
<g>
</g>
<g>
</g>
<g>
</g>
</svg>
