<svg id="Capa_1" enable-background="new 0 0 512.009 512.009" height="512" viewBox="0 0 512.009 512.009" width="512" xmlns="http://www.w3.org/2000/svg"><g><g><path d="m88.646 348.375c-15.243-.028-30.314-4.077-43.126-12.32-22.868-14.714-38.011-40.358-38.011-69.539 0-41.668 30.875-76.122 71.029-81.844 1.234-88.54 73.5-159.938 162.482-159.938 70.971 0 131.306 45.423 153.454 108.734.654-.012 1.301-.049 1.957-.049 59.69 0 108.078 48.307 108.078 107.897 0 56.054-42.824 102.099-97.589 107.367-2.255.214-318.274-.308-318.274-.308z" fill="#79a2f7"/><path d="m88.641 348.377c-15.243-.028-30.314-4.077-43.126-12.32-22.868-14.714-38.011-40.357-38.011-69.539 0-41.668 30.875-76.122 71.029-81.844 1.234-88.54 73.5-159.938 162.482-159.938 70.971 0 131.306 45.423 153.454 108.734.654-.012 1.301-.049 1.957-.049 59.69 0 108.078 48.307 108.078 107.897 0 56.054-42.824 102.099-97.589 107.367-2.255.214-318.274-.308-318.274-.308z" fill="#aad7e5"/><path d="m334.309 54.114c-19.45-8.44-40.83-13.11-63.29-13.11-87.666 0-159.112 71.171-162.379 160.234-.085 2.324-1.789 4.247-4.07 4.698-38.198 7.547-67.061 41.999-67.061 83.368 0 19.49 6.41 37.45 17.19 51.78-3.16-1.46-6.23-3.13-9.18-5.03-22.87-14.71-38.01-40.36-38.01-69.54 0-41.67 30.88-76.12 71.03-81.84 1.23-88.54 73.5-159.94 162.48-159.94 34.72 0 66.88 10.86 93.29 29.38z" fill="#98cfde"/><path d="m350.509 487.275h-189c-11.046 0-20-8.996-20-20.093v-40.814c0-11.097 8.954-20.093 20-20.093s20 8.996 20 20.093v15.721c0 2.761 2.239 5 5 5h139c2.761 0 5-2.239 5-5v-15.721c0-11.097 8.954-20.093 20-20.093s20 8.996 20 20.093v40.814c0 11.097-8.954 20.093-20 20.093z" fill="#aef2ab"/><path d="m370.509 452.183v15c0 11.1-8.95 20.09-20 20.09h-189c-11.05 0-20-8.99-20-20.09v-40.82c0-11.09 8.95-20.09 20-20.09 2.66 0 5.19.52 7.51 1.47-7.34 2.97-12.51 10.19-12.51 18.62v35.91c0 5.52 4.48 10 10 10h184c11.05 0 20-8.99 20-20.09z" fill="#adf1aa"/><path d="m370.509 452.183v15c0 11.1-8.95 20.09-20 20.09h-189c-11.05 0-20-8.99-20-20.09v-40.82c0-11.09 8.95-20.09 20-20.09 2.66 0 5.19.52 7.51 1.47-7.34 2.97-12.51 10.19-12.51 18.62v35.91c0 5.52 4.48 10 10 10h184c11.05 0 20-8.99 20-20.09z" fill="#96d094"/><path d="m233.378 389.504c0 12.576 10.127 22.761 22.629 22.761 12.503 0 22.629-10.186 22.629-22.761v-96.426l21.339 21.464c8.837 8.888 23.161 8.888 31.998 0 8.842-8.876 8.842-23.309 0-32.185l-59.968-60.318c-4.444-4.527-10.846-6.993-17.164-6.635-5.54.265-10.934 2.673-14.833 6.635l-59.967 60.318c-8.837 8.888-8.837 23.296 0 32.185 8.837 8.888 23.161 8.888 31.998 0l21.339-21.464z" fill="#f7f06d"/><g fill="#ed5"><path d="m260.009 222.044c1.74-1.77 3.77-3.23 5.99-4.32-3.45-1.71-7.32-2.54-11.16-2.32-5.54.27-10.93 2.67-14.83 6.64l-59.97 60.31c-8.83 8.89-8.83 23.3 0 32.19 4.56 4.59 10.58 6.81 16.56 6.65-.66-.46-1.28-.97-1.85-1.55-8.83-8.89-8.83-23.3 0-32.19z"/><path d="m243.27 283.12-9.893 9.958.001 96.426c0 10.02 6.42 18.51 15.35 21.55l-.331-125.734c-.006-2.673-3.242-4.096-5.127-2.2z"/></g></g><g><path d="m467.775 150.52c-7.572-6.119-17.001 5.911-9.258 11.803 24.463 19.187 38.492 47.978 38.492 78.991 0 51.894-38.921 94.79-90.57 99.878-2.272.038-21.734.081-120.303-.034v-29.898l8.521 8.57c11.212 11.759 31.42 11.759 42.631.006 11.746-11.792 11.746-30.979.005-42.766l-17.331-17.432c-6.761-7.003-17.599 3.778-10.637 10.576l17.336 17.437c5.932 5.955 5.932 15.644-.005 21.604-5.63 5.9-15.732 5.9-21.361 0l-21.34-21.464c-4.422-4.756-13.036-1.204-12.818 5.288v96.426c0 8.415-6.787 15.262-15.129 15.262s-15.129-6.847-15.129-15.262v-96.426c0-3.037-1.832-5.775-4.64-6.934-2.812-1.155-6.038-.508-8.179 1.646l-21.34 21.464c-5.63 5.9-15.73 5.9-21.36.001-5.923-5.959-5.923-15.652-.001-21.609l59.995-60.346c5.557-5.838 15.729-5.879 21.334.027l17.941 18.047c6.763 7.005 17.598-3.779 10.637-10.576l-17.907-18.013c-11.201-11.779-31.507-11.764-42.669-.034l-59.968 60.318c-11.72 11.789-11.721 30.971 0 42.761 11.216 11.759 31.419 11.759 42.635 0l8.521-8.571v29.822c-71.629-.097-137.219-.206-137.218-.206-40.579.781-74.191-34.565-73.651-74.359 0-14.854 4.331-29.213 12.525-41.526 2.295-3.448 1.359-8.104-2.089-10.399-3.451-2.294-8.104-1.36-10.399 2.089-9.837 14.783-15.037 32.017-15.037 49.837-.701 47.871 39.981 90.266 88.625 89.359 0 0 65.603.108 137.244.206v33.423c0 16.687 13.516 30.262 30.129 30.262s30.129-13.575 30.129-30.262v-33.347c56.681.012 93.442.206 121.502-.012 28.457-2.737 54.789-15.892 74.146-37.04 19.491-21.296 30.226-48.923 30.226-77.792-.001-35.653-16.124-68.747-44.235-90.795z"/><path d="m46.811 203.669c10.815-3.802 20.777-10.757 32.786-11.573 3.656-.521 6.39-3.627 6.44-7.32 1.173-84.113 70.698-152.544 154.983-152.544 65.851 0 124.675 41.678 146.375 103.71 1.268 3.832 5.245 5.485 9.036 4.975 11.468 0 22.712 1.909 33.422 5.673 9.138 3.364 14.199-11.061 4.975-14.15-11.29-3.969-23.089-6.144-35.122-6.478-25.165-65.255-88.262-108.73-158.686-108.73-44.988 0-87.396 17.375-119.41 48.925-30.504 30.061-48.252 69.703-50.373 112.2-10.043 2.153-19.562 5.985-28.375 11.431-3.523 2.177-4.615 6.799-2.438 10.322 1.418 2.295 3.873 3.559 6.387 3.559z"/><path d="m350.509 398.775c-15.163 0-27.5 12.378-27.5 27.593v13.221h-134v-13.221c0-15.215-12.337-27.593-27.5-27.593s-27.5 12.378-27.5 27.593v40.814c0 15.215 12.337 27.593 27.5 27.593h19.5c9.734.143 9.729-15.144 0-15h-19.5c-6.893 0-12.5-5.649-12.5-12.593v-40.814c0-6.943 5.607-12.593 12.5-12.593s12.5 5.649 12.5 12.593v15.721c0 6.893 5.607 12.5 12.5 12.5h139c6.893 0 12.5-5.607 12.5-12.5v-15.721c0-6.943 5.607-12.593 12.5-12.593s12.5 5.649 12.5 12.593v40.814c0 6.943-5.607 12.593-12.5 12.593h-134.5c-9.734-.143-9.729 15.144 0 15h134.5c15.163 0 27.5-12.378 27.5-27.593v-40.814c0-15.215-12.337-27.593-27.5-27.593z"/></g></g></svg>